<svg xmlns="http://www.w3.org/2000/svg" viewBox="0 0 100 150">
  <g fill="none" fill-rule="evenodd">
    <rect className="base" width="100" height="150" fill="#000" fill-rule="nonzero" rx="8"/>
    <path fill="#FFF" fill-rule="nonzero" d="M55.3921296,51.2061914 C57.0222219,49.5979362 59.6581157,49.5979362 61.2708665,51.2061914 L62.7774308,52.6897358 C64.4075231,54.297991 64.4075231,56.898574 62.7774308,58.4897201 L47.1703524,73.8877235 C46.5655081,74.4844652 46.5589397,75.458543 47.1556813,76.0633872 C47.1605386,76.0683105 47.1654291,76.073201 47.1703524,76.0780583 L62.7774308,91.4760617 C64.4075231,93.0843169 64.4075231,95.6848999 62.7774308,97.276046 L61.2882079,98.7938086 C59.6581157,100.402064 57.0222219,100.402064 55.409471,98.7938086 L34.2377515,77.9085467 C33.4125717,77.1029909 33.0007146,76.0484713 33.0000009,74.9943938 C32.9992898,73.9440537 33.4068115,72.8941528 34.2204101,72.0914533 L55.3921296,51.2061914 Z"/>
  </g>
</svg>
