<svg xmlns="http://www.w3.org/2000/svg" width="100" height="100" viewBox="0 0 100 100">
  <path d="M99.1152562,69.9496063 C97.1535377,72.4094488 92.3794441,74.1590551 92.3794441,74.1590551 L56.7733856,86.9086614 L56.7733856,77.5023622 L82.9701395,68.1826772 C85.9387577,67.1259843 86.4074869,65.6188976 83.9770393,64.8220472 C81.5639519,64.0251969 77.1891461,64.2503937 74.2205278,65.3244094 L56.7733856,71.4740157 L56.7733856,61.703937 C60.8009846,60.3527559 64.950106,59.3480315 69.9151634,58.7937008 C77.0155427,58.0141732 85.695713,58.8976378 92.5183268,61.4787402 C100.191597,63.903937 101.059614,67.4897638 99.1152562,69.9496063 Z M60.158652,53.9259843 L60.158652,29.8472441 C60.158652,27.023622 59.6378418,24.4251969 56.9817097,23.680315 C54.9505498,23.0220472 53.683245,24.9102362 53.683245,27.7338583 L53.683245,88 L37.3992455,82.8377953 L37.3992455,11 C44.3260214,12.2818898 54.4123793,15.3133858 59.8288055,17.1322835 C73.6302763,21.8614173 78.3002079,27.7511811 78.3002079,41.0031496 C78.3002079,53.9086614 70.3144512,58.8110236 60.158652,53.9259843 Z M7.50473903,76.5149606 C-0.376855585,74.2976378 -1.69624147,69.6724409 1.89734903,67.0220472 C5.21317408,64.5622047 10.8726451,62.7086614 10.8726451,62.7086614 L34.2223032,54.4283465 L34.2223032,63.8692913 L17.4174935,69.8629921 C14.4488753,70.919685 13.9975064,72.4267717 16.4105937,73.223622 C18.8236811,74.0204724 23.1984869,73.7952756 26.1671051,72.7212598 L34.2223032,69.7937008 L34.2223032,78.2472441 C25.2643674,79.8582677 16.6189178,79.511811 7.50473903,76.5149606 Z"/>
</svg>
