<svg xmlns="http://www.w3.org/2000/svg" width="100%" viewBox="0 0 44 44">
  <path fill-rule="evenodd" d="M2,4 L42,4 C43.1045695,4 44,4.8954305 44,6 C44,7.1045695 43.1045695,8 42,8 L2,8 C0.8954305,8 1.3527075e-16,7.1045695 0,6 C-1.3527075e-16,4.8954305 0.8954305,4 2,4 Z M2,36 L42,36 C43.1045695,36 44,36.8954305 44,38 C44,39.1045695 43.1045695,40 42,40 L2,40 C0.8954305,40 1.3527075e-16,39.1045695 0,38 C-1.3527075e-16,36.8954305 0.8954305,36 2,36 Z M2,20 L42,20 C43.1045695,20 44,20.8954305 44,22 C44,23.1045695 43.1045695,24 42,24 L2,24 C0.8954305,24 1.3527075e-16,23.1045695 0,22 C-1.3527075e-16,20.8954305 0.8954305,20 2,20 Z"/>
</svg>
