<svg xmlns="http://www.w3.org/2000/svg" width="100%" viewBox="0 0 44 44">
  <path d="M38.3127835,3.56589617 C37.6211607,3.20441297 36.834452,3 36,3 L8,3 C7.16554805,3 6.3788393,3.20441297 5.68721651,3.56589617 L22,19.8786797 L38.3127835,3.56589617 Z M40.4341038,5.68721651 L24.1213203,22 L40.4341038,38.3127835 C40.795587,37.6211607 41,36.834452 41,36 L41,8 C41,7.16554805 40.795587,6.3788393 40.4341038,5.68721651 Z M3.56589617,38.3127835 L19.8786797,22 L3.56589617,5.68721651 C3.20441297,6.3788393 3,7.16554805 3,8 L3,36 C3,36.834452 3.20441297,37.6211607 3.56589617,38.3127835 Z M5.68721651,40.4341038 C6.3788393,40.795587 7.16554805,41 8,41 L36,41 C36.834452,41 37.6211607,40.795587 38.3127835,40.4341038 L22,24.1213203 L5.68721651,40.4341038 Z M8,0 L36,0 C40.418278,-8.11624501e-16 44,3.581722 44,8 L44,36 C44,40.418278 40.418278,44 36,44 L8,44 C3.581722,44 5.41083001e-16,40.418278 0,36 L0,8 C-5.41083001e-16,3.581722 3.581722,8.11624501e-16 8,0 Z"/>
</svg>
