<svg xmlns="http://www.w3.org/2000/svg" width="100" height="100" viewBox="0 0 100 100">
  <path d="M67.4517397,59.5301177 C74.2403744,67.8488799 77.3665177,74.6662817 75.7881218,77.7149625 C74.5775075,80.0282831 67.0992823,84.5476842 61.5978831,86.2788447 C57.0619104,87.7036051 51.1161085,88.3164052 46.2123542,87.8414851 C40.3584976,87.2746449 34.4280199,85.1758044 29.3403749,81.8666835 C25.0649142,79.0784428 24.0994876,77.9294425 24.0994876,75.6467619 C24.0994876,71.0660807 29.1411599,63.0383986 37.7687024,53.8770362 C42.6724567,48.6835549 49.4917399,42.5861933 50.2426272,42.7547133 C51.683105,43.0764334 63.1609547,54.2600363 67.4517397,59.5301177 Z M39.6689072,32.8120307 C35.1176103,28.6909497 30.7655285,24.5545486 26.4287708,23.0991482 C24.0994876,22.317828 23.930921,22.363788 22.0307163,24.3400685 C17.5560405,28.9973497 13.8322522,36.5501117 12.7902044,43.0917534 C11.9626959,48.3311948 11.8554263,49.8019152 12.1465867,52.3603558 C13.0047437,60.0969579 14.7976788,65.4436392 18.3529006,70.8822407 C19.8087026,73.1189613 20.2071327,73.5326014 19.7780542,72.3989211 C19.1344364,70.7137206 19.7320815,66.6539196 21.2338562,62.5941185 C23.4252214,56.6193169 29.4936172,45.297834 39.6689072,32.8120307 Z M87.4192139,42.5402333 C84.8294187,30.2842301 77.0753573,22.5782681 75.9873369,22.5782681 C74.8686679,22.5782681 72.2788727,23.5740683 70.4706134,24.7077486 C66.9000673,26.9291492 64.1876783,29.5182299 60.6171322,32.7967107 C67.1146066,40.9622729 76.2784973,54.1527963 79.4506133,63.7890788 C80.492661,66.9603196 80.9370638,70.0856005 80.5846064,71.8014409 C80.3240945,73.1036412 80.3240945,73.1036412 80.7991457,72.5061611 C81.7339238,71.3265208 83.8486678,67.7109998 84.6915006,65.8419594 C85.8254938,63.3601187 86.9901354,59.6833177 87.5418077,56.849117 C88.2007497,53.4021161 88.1394528,46.0025542 87.4192139,42.5402333 Z M32.4205455,17.3694667 C39.7302041,16.9864666 49.2312279,22.6548681 49.9361426,22.7927481 C50.0434122,22.8080681 51.5298627,22.1493079 53.2461767,21.3067077 C63.0383609,16.5421865 67.6509547,17.3541467 69.7044018,17.4460667 C59.9122176,11.4253051 46.3042996,9.78606472 33.8610233,15.6536263 C30.275153,17.3541467 30.1832076,17.4767067 32.4205455,17.3694667 Z"/>
</svg>
