<svg xmlns="http://www.w3.org/2000/svg" width="100" height="100" viewBox="0 0 100 100">
  <path d="M28.2627024,12.2420842 C20.6980158,13.5993386 14.6089519,19.1980127 12.6923384,26.5611174 C11.99693,29.224729 11.9460465,30.7855715 12.0308524,51.4158373 C12.0647748,70.3495351 12.0817359,70.7906428 12.4039984,72.2666569 C14.151,80.1556976 19.7481897,85.7713374 27.7199446,87.6205964 C28.7545767,87.8581159 30.0775488,87.909013 38.5920615,87.9429443 C47.3949143,88.0108071 48.3108181,87.9938414 48.5482746,87.7563219 C48.7857312,87.5188024 48.8026923,84.4819458 48.8026923,50.0585829 C48.8026923,24.5252359 48.7518088,12.5135351 48.6500417,12.2929813 C48.4973911,12.0045647 48.2260122,11.987599 38.9991298,12.0045647 C31.5022879,12.0215304 29.2464509,12.0724274 28.2627024,12.2420842 Z M42.4931331,50.0076859 L42.4931331,81.8861969 L36.0818068,81.8013685 C30.1793158,81.7335058 29.5517521,81.6995744 28.3644695,81.4111579 C23.2930764,80.1048006 19.5446555,76.2026944 18.4761011,71.1129907 C18.1368775,69.5182168 18.1368775,30.3783952 18.4591399,28.8175527 C19.408966,24.3895105 22.4789398,20.7249238 26.6005067,19.0792529 C28.6697707,18.2479346 29.6365581,18.1461406 36.3701468,18.1291749 L42.4592107,18.1122092 L42.4592107,50.0076859 L42.4931331,50.0076859 Z M29.6195969,27.7487149 C28.6358484,27.9353374 27.1263033,28.698793 26.3121666,29.3943858 C24.6669321,30.8195028 23.8358342,32.8553843 23.9715237,35.2475451 C24.0393684,36.4860397 24.1072131,36.8253532 24.6160485,37.8263283 C25.3623405,39.3532394 26.4648172,40.4729742 27.9913235,41.2194641 C29.0429167,41.7454002 29.3142956,41.7962972 30.6881513,41.8471942 C31.9263175,41.8980913 32.3673082,41.8471942 33.198406,41.5587777 C36.6076034,40.4051115 38.6768674,37.0968041 38.0832261,33.6867026 C37.42174,29.6658367 33.571552,26.951328 29.6195969,27.7487149 Z M56.4521849,12.0893931 C56.3843402,12.1402902 56.3504178,29.1907976 56.3504178,50.0076859 C56.3504178,84.3292547 56.367379,87.8072189 56.6048355,87.909013 C57.028865,88.0617041 69.2409152,88.0108071 70.7504603,87.8411503 C77.1448254,87.1116261 82.7928987,83.2264855 85.8459112,77.4581547 C86.2360184,76.7116648 86.761815,75.4731702 87.0331938,74.7097146 C88.0169423,71.7576865 87.9999812,72.5381077 87.9999812,49.9228575 C87.9999812,31.8713749 87.9660588,29.173832 87.7455634,28.0371315 C86.1851348,19.8427085 79.9264591,13.6502356 71.7172476,12.2420842 C70.6147708,12.0554618 68.9186528,12.0045647 63.4401914,12.0045647 C59.6408869,11.987599 56.5030684,12.0384961 56.4521849,12.0893931 Z M73.260715,46.3770306 C75.7200863,47.0217264 77.7215056,48.8879511 78.5526035,51.2801118 C79.0784001,52.7561259 79.0614389,54.9277328 78.5356423,56.2849872 C77.568855,58.778942 75.6861639,60.5264069 73.260715,61.1711027 C69.3257211,62.1890435 65.1363094,59.8138484 63.9999103,55.9117422 C63.6606867,54.7241447 63.6776479,52.7052289 64.0677551,51.4667343 C65.2380765,47.6155251 69.3257211,45.3421241 73.260715,46.3770306 Z"/>
</svg>
